HIERARCHY
ROOT Hips
{
     OFFSET 1.90566 98.29340 -40.92580
     CHANNELS 6 Xposition Yposition Zposition Zrotation Xrotation Yrotation
     JOINT Spine
     {
          OFFSET -0.00000 11.89050 -0.00000
          CHANNELS 3 Zrotation Xrotation Yrotation
          JOINT Spine1
          {
               OFFSET -0.00000 25.65740 0.12766
               CHANNELS 3 Zrotation Xrotation Yrotation
               JOINT HEad
               {
                    OFFSET -0.00000 8.73416 0.01134
                    CHANNELS 3 Zrotation Xrotation Yrotation
                    End Site
                    {
                         OFFSET -0.29000 12.77420 2.51395
                    }
               }
               JOINT LeftShoulder1
               {
                    OFFSET 8.99000 -0.36225 -0.22000
                    CHANNELS 3 Zrotation Xrotation Yrotation
                    JOINT LeftArm
                    {
                         OFFSET 10.28270 -0.00338 0.32212
                         CHANNELS 3 Zrotation Xrotation Yrotation
                         JOINT LeftForeArm
                         {
                              OFFSET 32.76690 0.09914 -1.42434
                              CHANNELS 3 Zrotation Xrotation Yrotation
                              JOINT LeftHand
                              {
                                   OFFSET 27.56430 0.08536 1.02216
                                   CHANNELS 3 Zrotation Xrotation Yrotation
                                   End Site
                                   {
                                        OFFSET 16.74430 -0.60000 1.50291
                                   }
                              }
                         }
                    }
               }
               JOINT RightShoulder
               {
                    OFFSET -8.99000 -0.36225 -0.22000
                    CHANNELS 3 Zrotation Xrotation Yrotation
                    JOINT RightArm
                    {
                         OFFSET -10.28270 -0.00338 0.32212
                         CHANNELS 3 Zrotation Xrotation Yrotation
                         JOINT RightForeArm
                         {
                              OFFSET -32.89710 0.09914 -1.42434
                              CHANNELS 3 Zrotation Xrotation Yrotation
                              JOINT RightHand
                              {
                                   OFFSET -27.49210 0.08536 1.02216
                                   CHANNELS 3 Zrotation Xrotation Yrotation
                                   End Site
                                   {
                                        OFFSET -16.63120 -0.60000 1.50291
                                   }
                              }
                         }
                    }
               }
          }
     }
     JOINT LeftUpLeg
     {
          OFFSET 8.94580 -8.66707 0.10165
          CHANNELS 3 Zrotation Xrotation Yrotation
          JOINT LeftLeg
          {
               OFFSET 0.00000 -44.42270 1.37270
               CHANNELS 3 Zrotation Xrotation Yrotation
               JOINT LeftFoot
               {
                    OFFSET -0.25355 -42.09240 -1.46059
                    CHANNELS 3 Zrotation Xrotation Yrotation
                    JOINT LeftToes
                    {
                         OFFSET -0.04000 -4.41509 8.49910
                         CHANNELS 3 Zrotation Xrotation Yrotation
                         End Site
                         {
                              OFFSET 0.08000 -0.04745 9.77979
                         }
                    }
               }
          }
     }
     JOINT RightUpLeg
     {
          OFFSET -8.94580 -8.66707 0.10165
          CHANNELS 3 Zrotation Xrotation Yrotation
          JOINT RightLeg
          {
               OFFSET 0.00000 -44.42270 1.37270
               CHANNELS 3 Zrotation Xrotation Yrotation
               JOINT RightFoot
               {
                    OFFSET 0.25355 -42.09240 -1.46059
                    CHANNELS 3 Zrotation Xrotation Yrotation
                    JOINT RightToes
                    {
                         OFFSET 0.04000 -4.41509 8.49910
                         CHANNELS 3 Zrotation Xrotation Yrotation
                         End Site
                         {
                              OFFSET -0.08000 -0.13745 9.77979
                         }
                    }
               }
          }
     }
}
MOTION
Frames: 12
Frame Time: 0.01667
1.90566 98.29340 -40.92580 1.03069 -2.92787 -22.38330 2.52903 2.50033 2.70729 -0.79725 5.28564 5.75921 -7.53054 8.16318 27.67810 -0.00000 -0.00000 0.00000 -87.06580 -37.44810 -94.85490 -15.54510 23.79970 -76.16660 5.55594 9.67997 -0.87718 12.55950 0.91871 3.25492 62.77640 -17.82660 91.76130 10.64970 19.88200 82.80120 -5.55712 9.68432 0.87760 15.60540 -17.24270 2.91299 -1.41437 31.49120 13.79920 -12.80280 7.05975 1.58739 0.95765 -17.70390 -6.37032 -7.05204 3.18002 -1.10595 -2.58052 21.57580 7.32616 1.28149 -20.89620 -0.10866 -3.76728 -3.91114 3.09299 
1.68678 98.37280 -41.26370 1.08585 -3.00605 -22.92880 2.63377 2.56580 2.68860 -0.62735 5.43640 5.69848 -8.06481 7.74464 28.43430 -0.00000 -0.00000 0.00000 -88.94540 -37.56590 -95.75540 -15.90900 24.50520 -76.43640 5.55594 9.67997 -0.87718 12.75770 0.94510 3.36651 63.39470 -17.49140 91.70130 11.23710 21.35730 83.43760 -5.55712 9.68432 0.87760 15.49040 -17.59920 3.15515 -1.07175 31.26320 9.02744 -14.01730 4.41988 1.43919 1.01171 -14.71040 -6.06253 -6.92900 2.99127 -1.18087 -2.82377 21.52960 8.00030 1.07112 -21.03120 -0.13328 -3.44298 -3.54444 2.93463 
1.50418 98.46920 -41.55590 1.13644 -3.11031 -23.47440 2.69687 2.63016 2.67439 -0.47071 5.58288 5.63941 -8.54705 7.50055 29.12370 -0.00000 -0.00000 0.00000 -90.34500 -37.56630 -96.40390 -16.15260 24.95360 -76.58920 5.55594 9.67997 -0.87718 12.95120 0.97293 3.48603 63.61750 -17.14490 91.45220 11.67800 22.49450 83.96140 -5.55712 9.68432 0.87760 15.22630 -17.60130 3.29109 -0.65502 30.16970 3.64319 -15.75520 1.32534 1.21874 1.00670 -10.36950 -5.24083 -6.85035 2.88778 -1.29595 -3.06637 21.38170 8.68296 0.94114 -21.00840 -0.14894 -3.27426 -3.38785 2.78669 
1.36686 98.55850 -41.79230 1.14577 -3.21002 -24.02720 2.76807 2.68301 2.66515 -0.31134 5.71009 5.58665 -8.97758 7.33786 29.78930 -0.00000 -0.00000 0.00000 -91.24950 -37.47780 -96.81500 -16.26700 25.12870 -76.61750 5.55594 9.67997 -0.87718 13.14160 1.00246 3.61448 63.37800 -16.73470 91.05750 11.88810 23.12560 84.36930 -5.55712 9.68432 0.87760 14.84760 -17.25890 3.24213 -0.15611 28.19350 -1.35069 -17.92840 -1.32489 0.99275 0.91535 -5.77308 -4.27854 -6.77155 2.82669 -1.37012 -3.28929 21.20560 9.31976 0.81376 -20.88940 -0.16429 -3.19433 -3.37903 2.59022 
1.28296 98.61660 -41.96020 1.10795 -3.26490 -24.59780 2.88632 2.71535 2.66378 -0.14189 5.80532 5.54681 -9.34552 7.11840 30.49670 -0.00000 -0.00000 0.00000 -91.69640 -37.32480 -97.02910 -16.25500 25.03680 -76.53600 5.55594 9.67997 -0.87718 13.32130 1.03190 3.74289 62.67700 -16.21730 90.61110 11.83010 23.16950 84.64980 -5.55712 9.68432 0.87760 14.38730 -16.64690 3.01566 0.39394 25.44720 -5.18197 -20.12260 -2.72524 0.87816 0.81391 -2.51093 -3.64297 -6.67890 2.73215 -1.37723 -3.48781 21.09780 9.91360 0.65323 -20.75790 -0.18325 -3.14370 -3.43249 2.35112 
1.25159 98.63670 -42.05300 1.04930 -3.25106 -25.20060 3.04303 2.72279 2.67328 0.03274 5.85847 5.52400 -9.62989 6.75950 31.28940 -0.00000 -0.00000 0.00000 -91.76820 -37.13870 -97.09230 -16.13580 24.71530 -76.37030 5.55594 9.67997 -0.87718 13.45750 1.05686 3.85483 61.58690 -15.57190 90.22100 11.52430 22.64060 84.76260 -5.55712 9.68432 0.87760 13.84780 -15.86440 2.67225 0.97877 22.17810 -7.57215 -21.85660 -2.54684 0.98876 0.78981 -1.51226 -3.51392 -6.59049 2.55148 -1.36025 -3.68326 21.09790 10.52600 0.47866 -20.66500 -0.20356 -3.10777 -3.49707 2.12925 
1.26388 98.63090 -42.07530 0.99456 -3.17974 -25.84760 3.19243 2.71003 2.69220 0.21306 5.86975 5.51531 -9.83778 6.26967 32.18230 -0.00000 -0.00000 0.00000 -91.57300 -36.95900 -97.04490 -15.94180 24.21730 -76.13980 5.55594 9.67997 -0.87718 13.49890 1.07251 3.93791 60.17750 -14.77960 89.95910 10.99770 21.56740 84.65760 -5.55712 9.68432 0.87760 13.22070 -14.99040 2.27946 1.62835 18.73340 -8.65767 -22.93180 -1.06960 1.32834 0.82928 -2.44502 -3.71674 -6.52566 2.29912 -1.38780 -3.91281 21.16370 11.23440 0.34805 -20.62640 -0.21867 -3.08143 -3.53721 1.98048 
1.31021 98.62000 -42.04270 0.94379 -3.08668 -26.54270 3.28711 2.69254 2.71637 0.41362 5.85757 5.51804 -10.01710 5.71041 33.17240 -0.00000 -0.00000 0.00000 -91.21250 -36.81740 -96.92730 -15.69840 23.58380 -75.85650 5.55594 9.67997 -0.87718 13.40390 1.07568 3.98751 58.51000 -13.84030 89.85090 10.27620 19.99060 84.30710 -5.55712 9.68432 0.87760 12.52760 -14.08740 1.88545 2.35724 15.51610 -8.71908 -23.34080 1.08661 1.78262 0.87507 -4.43497 -4.00228 -6.48673 2.03736 -1.48753 -4.19493 21.21680 12.06990 0.31707 -20.64290 -0.22234 -3.03269 -3.50248 1.91896 
1.38566 98.61280 -41.96830 0.87438 -3.00496 -27.28340 3.31806 2.69007 2.74151 0.65258 5.85392 5.53318 -10.25610 5.19448 34.22010 -0.00000 -0.00000 0.00000 -90.77160 -36.73260 -96.78920 -15.41470 22.84610 -75.54010 5.55594 9.67997 -0.87718 13.15330 1.06444 3.99843 56.69490 -12.80460 89.89630 9.41670 18.03180 83.72500 -5.55712 9.68432 0.87760 11.85280 -13.23320 1.51323 3.08628 12.95000 -7.98330 -23.06730 3.29171 2.19401 0.90389 -6.96357 -4.27338 -6.46064 1.81729 -1.62807 -4.51777 21.22710 13.00320 0.40975 -20.73130 -0.21181 -2.91585 -3.34400 1.91880 
1.48588 98.60220 -41.85240 0.75842 -2.94557 -28.06040 3.31453 2.71493 2.76525 0.93126 5.88585 5.56260 -10.64190 4.84839 35.24640 -0.00000 -0.00000 0.00000 -90.32490 -36.69510 -96.68430 -15.09920 22.05760 -75.22690 5.55594 9.67997 -0.87718 12.76850 1.03881 3.96210 54.90320 -11.77840 90.07300 8.51651 15.91950 82.97980 -5.55712 9.68432 0.87760 11.33230 -12.50820 1.19489 3.65485 11.35230 -6.69775 -22.10100 4.93208 2.40584 0.90433 -9.53117 -4.43468 -6.42706 1.65536 -1.73964 -4.84838 21.22340 13.95900 0.61119 -20.91310 -0.18840 -2.71018 -3.05404 1.93880 
1.59868 98.58730 -41.69470 0.58405 -2.90093 -28.84600 3.28924 2.76783 2.78699 1.22654 5.96216 5.60409 -11.16490 4.69815 36.17680 -0.00000 -0.00000 0.00000 -89.93000 -36.65680 -96.65910 -14.78120 21.29890 -74.94730 5.55594 9.67997 -0.87718 12.33180 1.00310 3.87541 53.30090 -10.89010 90.32320 7.68411 13.92610 82.18650 -5.55712 9.68432 0.87760 11.09450 -11.91190 1.00053 3.89127 10.68110 -5.27198 -20.52090 5.49597 2.32458 0.85821 -11.18260 -4.21384 -6.36609 1.57153 -1.75496 -5.14803 21.19460 14.83940 0.88310 -21.16600 -0.15571 -2.42137 -2.65783 1.94346 
1.71313 98.56640 -41.49400 0.35765 -2.87450 -29.58730 3.24299 2.83947 2.80012 1.50554 6.07077 5.63849 -11.70830 4.67570 36.96870 -0.00000 -0.00000 0.00000 -89.60590 -36.56300 -96.72530 -14.49830 20.63870 -74.70890 5.55594 9.67997 -0.87718 11.95910 0.96589 3.75259 51.99660 -10.23730 90.55520 7.00744 12.28440 81.46890 -5.55712 9.68432 0.87760 11.19030 -11.40990 1.01897 3.71127 10.67270 -4.18964 -18.58620 4.85516 1.99693 0.75478 -11.19250 -3.42272 -6.27703 1.59159 -1.66402 -5.40128 21.13510 15.58600 1.18336 -21.47840 -0.11801 -2.05037 -2.17159 1.90378 
